<svg version="1.2" xmlns="http://www.w3.org/2000/svg" viewBox="0 0 249 666" width="249" height="666"><defs><filter x="-50%" y="-50%" width="200%" height="200%" id="f1" ><feDropShadow dx="-1.8369701987210297e-16" dy="3" stdDeviation="2.0833333333333335" flood-color="#fe3e57" flood-opacity=".4"/></filter><filter x="-50%" y="-50%" width="200%" height="200%" id="f2" ><feDropShadow dx="-1.8369701987210297e-16" dy="3" stdDeviation="2.0833333333333335" flood-color="#34c3ff" flood-opacity=".4"/></filter><filter x="-50%" y="-50%" width="200%" height="200%" id="f3" ><feDropShadow dx="-1.8369701987210297e-16" dy="3" stdDeviation="2.0833333333333335" flood-color="#34c3ff" flood-opacity=".4"/></filter><filter x="-50%" y="-50%" width="200%" height="200%" id="f4" ><feDropShadow dx="-1.8369701987210297e-16" dy="3" stdDeviation="2.0833333333333335" flood-color="#5800e4" flood-opacity=".4"/></filter><filter x="-50%" y="-50%" width="200%" height="200%" id="f5" ><feDropShadow dx="-1.8369701987210297e-16" dy="3" stdDeviation="2.0833333333333335" flood-color="#ffb534" flood-opacity=".4"/></filter><filter x="-50%" y="-50%" width="200%" height="200%" id="f6" ><feDropShadow dx="-1.8369701987210297e-16" dy="3" stdDeviation="2.0833333333333335" flood-color="#ffb534" flood-opacity=".4"/></filter><filter x="-50%" y="-50%" width="200%" height="200%" id="f7" ><feDropShadow dx="-1.8369701987210297e-16" dy="3" stdDeviation="2.0833333333333335" flood-color="#fe3e57" flood-opacity=".4"/></filter></defs><style>.a{fill:none;stroke:#ececec}.b{filter:url(#f1);fill:none;stroke:#fe3e57;stroke-width:2}.c{filter:url(#f2);fill:none;stroke:#34c3ff;stroke-width:2}.d{filter:url(#f3);fill:#34c3ff}.e{filter:url(#f4);fill:#5800e4}.f{filter:url(#f5);fill:#ffb534}.g{filter:url(#f6);fill:#ffb534}.h{filter:url(#f7);fill:#fe3e57}</style><path class="a" d="m25.9 15.7c12.1 8.6 63.1 33.6 132.1 120.5 69 86.9 49.5 158.9 8.1 190.5-41.3 31.7-65.2 60.8-82.6 99.1-17.4 38.2-48.7 141-48.7 141"/><path class="a" d="m0.1 9.2c20.6-34.5 144.2 42 212.5 142.9 68.4 100.9 22.2 158.6-5.9 178.4-28.1 19.7-49 42-68.6 77.5-19.6 35.6-32.2 62.7-58.3 160.7-26.1 97.9-47.2 97.1-47.2 97.1"/><path class="b" d="m137.3 210.9c7.5 0 13.5 6.2 13.5 13.9 0 7.6-6 13.8-13.5 13.8-7.4 0-13.4-6.2-13.4-13.8 0-7.7 6-13.9 13.4-13.9z"/><path class="c" d="m166.3 468.2c2.3 0 4.2 1.9 4.2 4.2 0 2.4-1.9 4.3-4.2 4.3-2.3 0-4.2-1.9-4.2-4.3 0-2.3 1.9-4.2 4.2-4.2z"/><path class="d" d="m97 128.2l3 3c0.3 0.4 0.3 1 0 1.4-0.4 0.3-1 0.3-1.3 0l-2.9-3.1-3 3.1c-0.3 0.3-0.9 0.3-1.2 0-0.4-0.4-0.4-1 0-1.4l2.9-3-2.9-3.1c-0.4-0.4-0.4-1 0-1.3 0.3-0.4 0.9-0.4 1.2 0l3 3 2.9-3c0.3-0.4 0.9-0.4 1.3 0 0.3 0.3 0.3 0.9 0 1.3z"/><path class="e" d="m91.6 323.8l-4.3-4.3 4.3-4.4 4.4 4.4z"/><path class="f" d="m221.5 367.2l2.9 3c0.3 0.4 0.3 1 0 1.4-0.4 0.4-0.9 0.4-1.3 0l-2.9-3.1-2.9 3.1c-0.4 0.4-1 0.4-1.3 0-0.4-0.4-0.4-1 0-1.4l2.9-3-2.9-3c-0.4-0.4-0.4-1 0-1.4 0.3-0.4 0.9-0.4 1.3 0l2.9 3.1 2.9-3.1c0.4-0.4 0.9-0.4 1.3 0 0.3 0.4 0.3 1 0 1.4z"/><path class="g" d="m226.5 79.4l2.9 3c0.3 0.4 0.3 1 0 1.4-0.4 0.4-1 0.4-1.3 0l-2.9-3.1-2.9 3.1c-0.4 0.4-1 0.4-1.3 0-0.4-0.4-0.4-1 0-1.4l2.9-3-2.9-3.1c-0.4-0.3-0.4-0.9 0-1.3 0.3-0.4 0.9-0.4 1.3 0l2.9 3 2.9-3c0.3-0.4 0.9-0.4 1.3 0 0.3 0.4 0.3 1 0 1.3z"/><path class="h" d="m115.7 604.6l3 3c0.3 0.4 0.3 1 0 1.4-0.4 0.4-1 0.4-1.3 0l-2.9-3.1-3 3.1c-0.3 0.4-0.9 0.4-1.2 0-0.4-0.4-0.4-1 0-1.4l2.9-3-2.9-3.1c-0.4-0.3-0.4-0.9 0-1.3 0.3-0.4 0.9-0.4 1.2 0l3 3 2.9-3c0.3-0.4 0.9-0.4 1.3 0 0.3 0.4 0.3 1 0 1.3z"/></svg>