<svg version="1.2" xmlns="http://www.w3.org/2000/svg" viewBox="0 0 17 16" width="17" height="16"><style>.a{fill:#fe3e57}</style><path fill-rule="evenodd" class="a" d="m17 3.1v11c0 1.1-0.8 1.9-1.9 1.9h-12.2c-1.1 0-1.9-0.8-1.9-1.9v-11c0-1 0.8-1.9 1.9-1.9h0.7v-1.2h1.3v1.2h8.2v-1.2h1.3v1.2h0.7c1.1 0 1.9 0.9 1.9 1.9zm-14.8 0v1.5h13.5v-1.5c0-0.3-0.2-0.6-0.6-0.6h-0.7v1.2h-1.3v-1.2h-8.2v1.2h-1.3v-1.2h-0.7c-0.4 0-0.7 0.3-0.7 0.6zm13.5 11v-8.2h-13.5v8.2c0 0.4 0.3 0.6 0.7 0.6h12.2c0.4 0 0.6-0.2 0.6-0.6zm-12.3-6.9h1.2v1.2h-1.2zm2.5 0h1.2v1.3h-1.2zm2.5 0h1.2v1.2h-1.2zm2.5 0h1.2v1.3h-1.2zm2.5 0h1.2v1.2h-1.2zm-10 2.5h1.2v1.3h-1.2zm2.5 0h1.2v1.2h-1.2zm2.5 0h1.2v1.3h-1.2zm2.5 0h1.2v1.2h-1.2zm-7.5 2.5h1.2v1.3h-1.2zm2.5 0h1.2v1.2h-1.2zm2.5 0h1.2v1.3h-1.2zm2.5 0h1.2v1.2h-1.2zm2.5-2.5h1.2v1.3h-1.2z"/></svg>