<svg version="1.2" xmlns="http://www.w3.org/2000/svg" viewBox="0 0 17 16" width="17" height="16"><style>.a{fill:#fe3e57}</style><path fill-rule="evenodd" class="a" d="m16.4 0h-14.8c-0.3 0-0.6 0.3-0.6 0.6v12.4c0 0.3 0.3 0.6 0.6 0.6h5.6l1.3 2.1c0.1 0.2 0.3 0.3 0.5 0.3 0.2 0 0.4-0.1 0.5-0.3l1.3-2.1h5.6c0.3 0 0.6-0.3 0.6-0.6v-12.4c0-0.3-0.3-0.6-0.6-0.6zm-0.7 12.4h-5.2c-0.2 0-0.4 0.1-0.5 0.3l-1 1.5-1-1.5c-0.1-0.2-0.3-0.3-0.5-0.3h-5.3v-11.2h13.5zm-7.5-5.5c0-0.4 0.4-0.8 0.8-0.8 0.4 0 0.8 0.4 0.8 0.8 0 0.4-0.4 0.8-0.8 0.8-0.4 0-0.8-0.4-0.8-0.8zm-3.1 0c0-0.4 0.3-0.8 0.8-0.8 0.4 0 0.8 0.4 0.8 0.8 0 0.4-0.4 0.8-0.8 0.8-0.5 0-0.8-0.4-0.8-0.8zm6.2 0c0-0.4 0.4-0.8 0.8-0.8 0.5 0 0.8 0.4 0.8 0.8 0 0.4-0.3 0.8-0.8 0.8-0.4 0-0.8-0.4-0.8-0.8z"/></svg>