<?xml version="1.0" encoding="UTF-8"?>
<svg xmlns="http://www.w3.org/2000/svg" xmlns:xlink="http://www.w3.org/1999/xlink" width="18px" height="18px" viewBox="0 0 18 18" version="1.1">
<g id="surface1">
<path style=" stroke:none;fill-rule:nonzero;fill:rgb(0%,0%,0%);fill-opacity:1;" d="M 18 9.203125 C 18 14.179688 14.425781 17.71875 9.148438 17.71875 C 4.085938 17.71875 0 13.824219 0 9 C 0 4.175781 4.085938 0.28125 9.148438 0.28125 C 11.613281 0.28125 13.683594 1.140625 15.28125 2.5625 L 12.792969 4.84375 C 9.535156 1.847656 3.476562 4.097656 3.476562 9 C 3.476562 12.039062 6.027344 14.503906 9.148438 14.503906 C 12.769531 14.503906 14.128906 12.03125 14.339844 10.746094 L 9.148438 10.746094 L 9.148438 7.75 L 17.855469 7.75 C 17.941406 8.195312 18 8.625 18 9.203125 Z M 18 9.203125 "/>
</g>
</svg>
