<?xml version="1.0" encoding="UTF-8"?>
<svg xmlns="http://www.w3.org/2000/svg" xmlns:xlink="http://www.w3.org/1999/xlink" width="18px" height="18px" viewBox="0 0 18 20" version="1.1">
<g id="surface1">
<path style=" stroke:none;fill-rule:nonzero;fill:rgb(0%,0%,0%);fill-opacity:1;" d="M 4.027344 17.5 L 0.296875 17.5 L 0.296875 5.816406 L 4.027344 5.816406 Z M 2.160156 4.222656 C 0.96875 4.222656 0 3.261719 0 2.101562 C 0 0.941406 0.96875 0 2.160156 0 C 3.355469 0 4.324219 0.941406 4.324219 2.101562 C 4.324219 3.261719 3.355469 4.222656 2.160156 4.222656 Z M 17.996094 17.5 L 14.273438 17.5 L 14.273438 11.8125 C 14.273438 10.457031 14.242188 8.71875 12.332031 8.71875 C 10.390625 8.71875 10.09375 10.191406 10.09375 11.714844 L 10.09375 17.5 L 6.367188 17.5 L 6.367188 5.816406 L 9.945312 5.816406 L 9.945312 7.410156 L 9.996094 7.410156 C 10.496094 6.492188 11.714844 5.523438 13.527344 5.523438 C 17.304688 5.523438 18 7.941406 18 11.082031 L 18 17.5 Z M 17.996094 17.5 "/>
</g>
</svg>
