<svg version="1.2" xmlns="http://www.w3.org/2000/svg" viewBox="0 0 18 20" width="18" height="20"><style>.a{fill:#fe3e57}</style><path fill-rule="evenodd" class="a" d="m5.8 13.6l-5.6 5.4q-0.2-0.3-0.2-0.8v-10.3c2.2 2.2 3.6 3.6 5.8 5.7zm12.2-5.7v10.3q0 0.5-0.2 0.8l-5.6-5.4c2.2-2.2 3.7-3.6 5.8-5.7zm-8.4-1.4c-0.1 0.3-0.2 0.6-0.6 0.6-0.3 0-0.6-0.3-0.6-0.6 0-0.3 0.3-0.6 0.6-0.6 0.3 0 0.6 0.3 0.6 0.6zm7.4 13.3q-0.4 0.2-0.8 0.2h-14.4q-0.4 0-0.8-0.2l5.8-5.7h4.4zm-16.4-12.9l1.8-1.8v3.5zm15 1.8v-3.5l1.8 1.7zm-8.8 4.4l-3.2-3.2v-9.1c0-0.4 0.3-0.7 0.6-0.7h9.4c0.4 0 0.8 0.3 0.8 0.8v9l-3.3 3.2zm-0.1-3c1.3 0.8 2.8 0.8 4.2 0.2 0.7-0.3 0.2-1.4-0.5-1-1 0.4-2.1 0.4-3-0.2-0.9-0.5-1.4-1.5-1.4-2.5 0-1.6 1.3-2.9 3-2.9 1.6 0 3 1.3 3 2.9 0 0.8-1.2 0.8-1.2 0 0-0.9-0.8-1.7-1.8-1.7-1 0-1.8 0.8-1.8 1.7 0 1 0.8 1.8 1.8 1.8 0.4 0 0.9-0.2 1.2-0.5 1.1 1.1 3 0.2 3-1.3 0-2.2-1.9-4.1-4.2-4.1-2.3 0-4.2 1.9-4.2 4.1 0 1.4 0.7 2.7 1.9 3.5z"/></svg>