<?xml version="1.0" encoding="UTF-8"?>
<svg xmlns="http://www.w3.org/2000/svg" xmlns:xlink="http://www.w3.org/1999/xlink" width="18px" height="18px" viewBox="0 0 18 24" version="1.1">
<g id="surface1">
<path style=" stroke:none;fill-rule:nonzero;fill:rgb(0%,0%,0%);fill-opacity:1;" d="M 9.5625 0.304688 C 4.753906 0.304688 0 3.511719 0 8.699219 C 0 12 1.855469 13.875 2.980469 13.875 C 3.445312 13.875 3.710938 12.582031 3.710938 12.214844 C 3.710938 11.78125 2.601562 10.851562 2.601562 9.039062 C 2.601562 5.269531 5.46875 2.597656 9.183594 2.597656 C 12.375 2.597656 14.738281 4.410156 14.738281 7.742188 C 14.738281 10.234375 13.738281 14.902344 10.503906 14.902344 C 9.335938 14.902344 8.339844 14.058594 8.339844 12.847656 C 8.339844 11.078125 9.578125 9.359375 9.578125 7.53125 C 9.578125 4.429688 5.175781 4.992188 5.175781 8.742188 C 5.175781 9.53125 5.273438 10.402344 5.625 11.117188 C 4.976562 13.902344 3.65625 18.050781 3.65625 20.921875 C 3.65625 21.804688 3.78125 22.679688 3.867188 23.5625 C 4.027344 23.742188 3.945312 23.722656 4.191406 23.632812 C 6.554688 20.398438 6.46875 19.765625 7.539062 15.535156 C 8.113281 16.632812 9.605469 17.222656 10.785156 17.222656 C 15.765625 17.222656 18 12.371094 18 7.996094 C 18 3.34375 13.976562 0.304688 9.5625 0.304688 Z M 9.5625 0.304688 "/>
</g>
</svg>
