<svg version="1.2" xmlns="http://www.w3.org/2000/svg" viewBox="0 0 16 16" width="16" height="16"><style>.a{fill:#fe3e57}</style><path fill-rule="evenodd" class="a" d="m13.7 10.3c-0.9-0.8-2-1.5-3.1-1.9 1.2-0.8 2-2.2 2-3.8 0-2.5-2-4.6-4.6-4.6-2.6 0-4.6 2.1-4.6 4.6 0 1.6 0.8 3 2 3.8-1.1 0.4-2.2 1.1-3.1 1.9-1.5 1.6-2.3 3.6-2.3 5.7h1.2c0-3.7 3.1-6.8 6.8-6.8 3.7 0 6.7 3.1 6.7 6.8h1.3c0-2.1-0.8-4.1-2.3-5.7zm-9.1-5.7c0-1.8 1.5-3.4 3.4-3.4 1.9 0 3.4 1.6 3.4 3.4 0 1.9-1.5 3.4-3.4 3.4-1.9 0-3.4-1.5-3.4-3.4z"/></svg>